<svg width="43" height="24" viewBox="0 0 43 24" fill="none" xmlns="http://www.w3.org/2000/svg">
<path d="M3.1087 8.44444V15.5556C3.1087 15.9092 2.97127 16.2483 2.72666 16.4984C2.48205 16.7484 2.15028 16.8889 1.80435 16.8889C1.45841 16.8889 1.12665 16.7484 0.882034 16.4984C0.637422 16.2483 0.5 15.9092 0.5 15.5556V8.44444C0.5 8.09082 0.637422 7.75168 0.882034 7.50164C1.12665 7.25159 1.45841 7.11111 1.80435 7.11111C2.15028 7.11111 2.48205 7.25159 2.72666 7.50164C2.97127 7.75168 3.1087 8.09082 3.1087 8.44444ZM6.15217 0C5.80624 0 5.47447 0.140476 5.22986 0.390524C4.98525 0.640573 4.84783 0.979711 4.84783 1.33333V22.6667C4.84783 23.0203 4.98525 23.3594 5.22986 23.6095C5.47447 23.8595 5.80624 24 6.15217 24C6.49811 24 6.82987 23.8595 7.07449 23.6095C7.3191 23.3594 7.45652 23.0203 7.45652 22.6667V1.33333C7.45652 0.979711 7.3191 0.640573 7.07449 0.390524C6.82987 0.140476 6.49811 0 6.15217 0ZM10.5 3.55556C10.1541 3.55556 9.8223 3.69603 9.57769 3.94608C9.33307 4.19613 9.19565 4.53527 9.19565 4.88889V19.1111C9.19565 19.4647 9.33307 19.8039 9.57769 20.0539C9.8223 20.304 10.1541 20.4444 10.5 20.4444C10.8459 20.4444 11.1777 20.304 11.4223 20.0539C11.6669 19.8039 11.8043 19.4647 11.8043 19.1111V4.88889C11.8043 4.53527 11.6669 4.19613 11.4223 3.94608C11.1777 3.69603 10.8459 3.55556 10.5 3.55556ZM14.8478 7.11111C14.5019 7.11111 14.1701 7.25159 13.9255 7.50164C13.6809 7.75168 13.5435 8.09082 13.5435 8.44444V15.5556C13.5435 15.9092 13.6809 16.2483 13.9255 16.4984C14.1701 16.7484 14.5019 16.8889 14.8478 16.8889C15.1938 16.8889 15.5255 16.7484 15.7701 16.4984C16.0148 16.2483 16.1522 15.9092 16.1522 15.5556V8.44444C16.1522 8.09082 16.0148 7.75168 15.7701 7.50164C15.5255 7.25159 15.1938 7.11111 14.8478 7.11111ZM19.1957 5.33333C18.8497 5.33333 18.518 5.47381 18.2733 5.72386C18.0287 5.97391 17.8913 6.31304 17.8913 6.66667V17.3333C17.8913 17.687 18.0287 18.0261 18.2733 18.2761C18.518 18.5262 18.8497 18.6667 19.1957 18.6667C19.5416 18.6667 19.8734 18.5262 20.118 18.2761C20.3626 18.0261 20.5 17.687 20.5 17.3333V6.66667C20.5 6.31304 20.3626 5.97391 20.118 5.72386C19.8734 5.47381 19.5416 5.33333 19.1957 5.33333Z" fill="#0054BA"/>
<path d="M25.1087 8.44444V15.5556C25.1087 15.9092 24.9713 16.2483 24.7267 16.4984C24.482 16.7484 24.1503 16.8889 23.8043 16.8889C23.4584 16.8889 23.1266 16.7484 22.882 16.4984C22.6374 16.2483 22.5 15.9092 22.5 15.5556V8.44444C22.5 8.09082 22.6374 7.75168 22.882 7.50164C23.1266 7.25159 23.4584 7.11111 23.8043 7.11111C24.1503 7.11111 24.482 7.25159 24.7267 7.50164C24.9713 7.75168 25.1087 8.09082 25.1087 8.44444ZM28.1522 0C27.8062 0 27.4745 0.140476 27.2299 0.390524C26.9852 0.640573 26.8478 0.979711 26.8478 1.33333V22.6667C26.8478 23.0203 26.9852 23.3594 27.2299 23.6095C27.4745 23.8595 27.8062 24 28.1522 24C28.4981 24 28.8299 23.8595 29.0745 23.6095C29.3191 23.3594 29.4565 23.0203 29.4565 22.6667V1.33333C29.4565 0.979711 29.3191 0.640573 29.0745 0.390524C28.8299 0.140476 28.4981 0 28.1522 0ZM32.5 3.55556C32.1541 3.55556 31.8223 3.69603 31.5777 3.94608C31.3331 4.19613 31.1957 4.53527 31.1957 4.88889V19.1111C31.1957 19.4647 31.3331 19.8039 31.5777 20.0539C31.8223 20.304 32.1541 20.4444 32.5 20.4444C32.8459 20.4444 33.1777 20.304 33.4223 20.0539C33.6669 19.8039 33.8043 19.4647 33.8043 19.1111V4.88889C33.8043 4.53527 33.6669 4.19613 33.4223 3.94608C33.1777 3.69603 32.8459 3.55556 32.5 3.55556ZM36.8478 7.11111C36.5019 7.11111 36.1701 7.25159 35.9255 7.50164C35.6809 7.75168 35.5435 8.09082 35.5435 8.44444V15.5556C35.5435 15.9092 35.6809 16.2483 35.9255 16.4984C36.1701 16.7484 36.5019 16.8889 36.8478 16.8889C37.1938 16.8889 37.5255 16.7484 37.7701 16.4984C38.0148 16.2483 38.1522 15.9092 38.1522 15.5556V8.44444C38.1522 8.09082 38.0148 7.75168 37.7701 7.50164C37.5255 7.25159 37.1938 7.11111 36.8478 7.11111ZM41.1957 5.33333C40.8497 5.33333 40.518 5.47381 40.2733 5.72386C40.0287 5.97391 39.8913 6.31304 39.8913 6.66667V17.3333C39.8913 17.687 40.0287 18.0261 40.2733 18.2761C40.518 18.5262 40.8497 18.6667 41.1957 18.6667C41.5416 18.6667 41.8733 18.5262 42.118 18.2761C42.3626 18.0261 42.5 17.687 42.5 17.3333V6.66667C42.5 6.31304 42.3626 5.97391 42.118 5.72386C41.8733 5.47381 41.5416 5.33333 41.1957 5.33333Z" fill="#0054BA"/>
</svg>
