<svg width="14" height="14" viewBox="0 0 14 14" fill="none" xmlns="http://www.w3.org/2000/svg">
<path d="M7.25 0.625C5.98915 0.625 4.75661 0.998887 3.70824 1.69938C2.65988 2.39988 1.84278 3.39551 1.36027 4.56039C0.877762 5.72527 0.751516 7.00707 0.997497 8.2437C1.24348 9.48033 1.85064 10.6162 2.7422 11.5078C3.63376 12.3994 4.76967 13.0065 6.0063 13.2525C7.24293 13.4985 8.52473 13.3722 9.68961 12.8897C10.8545 12.4072 11.8501 11.5901 12.5506 10.5418C13.2511 9.4934 13.625 8.26086 13.625 7C13.623 5.30985 12.9507 3.6895 11.7556 2.49439C10.5605 1.29927 8.94015 0.626985 7.25 0.625ZM12.8625 6.625H10.1181C10.0219 4.07687 8.96313 2.36063 8.21625 1.45813C9.4566 1.67652 10.5881 2.30401 11.4302 3.24049C12.2723 4.17698 12.7766 5.3685 12.8625 6.625ZM7.25 12.4894C6.88895 12.1211 6.57049 11.7133 6.30063 11.2738C5.58284 10.0961 5.18073 8.75333 5.13313 7.375H9.36688C9.31927 8.75333 8.91717 10.0961 8.19938 11.2738C7.92952 11.7133 7.61106 12.1211 7.25 12.4894ZM5.13313 6.625C5.18073 5.24667 5.58284 3.90389 6.30063 2.72625C6.57049 2.28671 6.88895 1.87894 7.25 1.51062C7.61106 1.87894 7.92952 2.28671 8.19938 2.72625C8.91717 3.90389 9.31927 5.24667 9.36688 6.625H5.13313ZM6.28375 1.45813C5.53375 2.36063 4.47813 4.07687 4.38188 6.625H1.6375C1.72343 5.3685 2.22768 4.17698 3.0698 3.24049C3.91192 2.30401 5.0434 1.67652 6.28375 1.45813ZM1.6375 7.375H4.38188C4.47813 9.92313 5.53688 11.6394 6.28375 12.5419C5.0434 12.3235 3.91192 11.696 3.0698 10.7595C2.22768 9.82302 1.72343 8.6315 1.6375 7.375ZM8.21625 12.5419C8.96313 11.6394 10.0219 9.92313 10.1181 7.375H12.8625C12.7766 8.6315 12.2723 9.82302 11.4302 10.7595C10.5881 11.696 9.4566 12.3235 8.21625 12.5419Z" fill="#0054BA"/>
</svg>
