<svg width="32" height="32" viewBox="0 0 32 32" fill="none" xmlns="http://www.w3.org/2000/svg">
<mask id="mask0_2192_2098" style="mask-type:alpha" maskUnits="userSpaceOnUse" x="0" y="2" width="32" height="28">
<path d="M11.4628 11.6214C11.4628 13.4623 10.0301 14.9546 8.2629 14.9546C6.49566 14.9546 5.06302 13.4623 5.06302 11.6214C5.06302 9.78057 6.49566 8.28825 8.2629 8.28825C10.0301 8.28825 11.4628 9.78057 11.4628 11.6214Z" fill="#B4DBFF"/>
<path fill-rule="evenodd" clip-rule="evenodd" d="M0.000976562 6.00019C0.000976562 4.15932 1.43361 2.66699 3.20085 2.66699H28.7999C30.5671 2.66699 31.9997 4.15932 31.9997 6.00019V25.9994C31.9997 27.8403 30.5671 29.3326 28.7999 29.3326H26.6877C26.6806 29.3326 26.6736 29.3326 26.6666 29.3326H3.93013C3.9241 29.3326 3.91808 29.3326 3.91205 29.3326H3.20085C1.43361 29.3326 0.000976562 27.8403 0.000976562 25.9994V6.00019ZM3.20085 5.16689H28.7999C29.2417 5.16689 29.5998 5.53997 29.5998 6.00019V16.3866L22.6477 9.33343L10.82 21.3329L7.33592 17.7982L2.40088 22.805V6.00019C2.40088 5.53997 2.75904 5.16689 3.20085 5.16689Z" fill="#B4DBFF"/>
</mask>
<g mask="url(#mask0_2192_2098)">
<rect y="-0.000976562" width="31.9987" height="31.9987" fill="#B4DBFF"/>
</g>
</svg>
