<svg width="19" height="19" viewBox="0 0 19 19" fill="none" xmlns="http://www.w3.org/2000/svg">
<path d="M18.5 11.4996V17.4996C18.5 17.6985 18.421 17.8893 18.2803 18.0299C18.1397 18.1706 17.9489 18.2496 17.75 18.2496H1.25C1.05109 18.2496 0.860322 18.1706 0.71967 18.0299C0.579018 17.8893 0.5 17.6985 0.5 17.4996V11.4996C0.5 11.3007 0.579018 11.1099 0.71967 10.9693C0.860322 10.8286 1.05109 10.7496 1.25 10.7496C1.44891 10.7496 1.63968 10.8286 1.78033 10.9693C1.92098 11.1099 2 11.3007 2 11.4996V16.7496H17V11.4996C17 11.3007 17.079 11.1099 17.2197 10.9693C17.3603 10.8286 17.5511 10.7496 17.75 10.7496C17.9489 10.7496 18.1397 10.8286 18.2803 10.9693C18.421 11.1099 18.5 11.3007 18.5 11.4996ZM6.28063 5.28024L8.75 2.80993V11.4996C8.75 11.6985 8.82902 11.8893 8.96967 12.0299C9.11032 12.1706 9.30109 12.2496 9.5 12.2496C9.69891 12.2496 9.88968 12.1706 10.0303 12.0299C10.171 11.8893 10.25 11.6985 10.25 11.4996V2.80993L12.7194 5.28024C12.8601 5.42097 13.051 5.50003 13.25 5.50003C13.449 5.50003 13.6399 5.42097 13.7806 5.28024C13.9214 5.13951 14.0004 4.94864 14.0004 4.74961C14.0004 4.55059 13.9214 4.35972 13.7806 4.21899L10.0306 0.468988C9.96097 0.399256 9.87825 0.343937 9.7872 0.306193C9.69616 0.26845 9.59856 0.249023 9.5 0.249023C9.40144 0.249023 9.30384 0.26845 9.2128 0.306193C9.12175 0.343937 9.03903 0.399256 8.96937 0.468988L5.21937 4.21899C5.07864 4.35972 4.99958 4.55059 4.99958 4.74961C4.99958 4.94864 5.07864 5.13951 5.21937 5.28024C5.36011 5.42097 5.55098 5.50003 5.75 5.50003C5.94902 5.50003 6.13989 5.42097 6.28063 5.28024Z" fill="black"/>
</svg>
